<svg width="17" height="17" viewBox="0 0 17 17" fill="none" xmlns="http://www.w3.org/2000/svg">
<path d="M7.0697 9.89746H9.89755V14.8462H7.0697V9.89746Z" fill="white"/>
<path d="M14.4362 7.19685L8.98554 1.62599C8.91982 1.55973 8.84163 1.50713 8.75548 1.47124C8.66933 1.43535 8.57692 1.41687 8.48359 1.41687C8.39027 1.41687 8.29786 1.43535 8.21171 1.47124C8.12556 1.50713 8.04737 1.55973 7.98165 1.62599L2.53097 7.20392C2.39908 7.33688 2.29491 7.49471 2.22452 7.66826C2.15413 7.84181 2.11892 8.02761 2.12093 8.21488V14.1392C2.12038 14.5011 2.25863 14.8495 2.5072 15.1125C2.75577 15.3755 3.09573 15.5332 3.45709 15.5532H5.65574V9.19049C5.65574 9.00299 5.73023 8.82317 5.86281 8.69059C5.99539 8.55801 6.17521 8.48352 6.36271 8.48352H10.6045C10.792 8.48352 10.9718 8.55801 11.1044 8.69059C11.237 8.82317 11.3114 9.00299 11.3114 9.19049V15.5532H13.5101C13.8715 15.5332 14.2114 15.3755 14.46 15.1125C14.7086 14.8495 14.8468 14.5011 14.8463 14.1392V8.21488C14.8468 7.83519 14.6998 7.47015 14.4362 7.19685Z" fill="white"/>
</svg>
