<svg width="150" height="40" viewBox="0 0 150 40" fill="none" xmlns="http://www.w3.org/2000/svg">
    <defs>
        <linearGradient id="paint0_linear_635_230" x1="11.39" y1="38.473" x2="38.72" y2="11.1431"
            gradientUnits="userSpaceOnUse">
            <stop offset="0.5" stop-color="#2BB3E8" />
            <stop offset="1" stop-color="#3B5AA9" />
        </linearGradient>
        <linearGradient id="paint1_linear_635_230" x1="0.435844" y1="27.9799" x2="27.8234"
            y2="0.592321" gradientUnits="userSpaceOnUse">
            <stop stop-color="#3B5AA9" />
            <stop offset="0.5" stop-color="#2BB4E8" />
        </linearGradient>
    </defs>
    <path
        d="M6.0179 30.8738C6.13276 31.9334 6.4852 32.9534 7.04899 33.8579C7.61277 34.7624 8.37337 35.528 9.27411 36.0978L9.40995 36.1842C13.1436 38.4779 17.5413 39.4466 21.8932 38.9339C26.245 38.4213 30.2972 36.4572 33.3957 33.3587C36.4942 30.2602 38.4583 26.208 38.9709 21.8562C39.4835 17.5043 38.5149 13.1067 36.2212 9.37297C35.2588 7.82856 34.0867 6.42515 32.7386 5.20288C33.5824 6.6974 33.914 8.42697 33.6829 10.1276C33.4517 11.8282 32.6704 13.4065 31.4583 14.6216L31.2031 14.8768C32.1246 17.1697 32.3476 19.6839 31.8441 22.1033C31.3405 24.5226 30.1329 26.739 28.373 28.4738C26.6131 30.2086 24.3796 31.3843 21.9533 31.8531C19.527 32.3219 17.0162 32.0628 14.7368 31.1085L14.6133 31.0385C13.6305 30.4276 12.7993 29.6014 12.1824 28.6223C11.5656 27.6431 11.1792 26.5367 11.0525 25.3864C10.8954 24.0402 11.0882 22.6762 11.6123 21.4263L8.10912 24.913C7.33461 25.6853 6.74432 26.6224 6.38224 27.6544C6.02017 28.6865 5.89562 29.7869 6.0179 30.8738Z"
        fill="url(#paint0_linear_635_230)" />
    <path
        d="M33.1502 8.25326C33.0398 7.19489 32.6913 6.17522 32.131 5.27057C31.5706 4.36592 30.813 3.59972 29.9146 3.02933L29.857 2.98816L29.9311 2.69177L29.7788 2.93876C25.6479 0.370063 20.7058 -0.560909 15.9235 0.328796C11.1412 1.2185 6.86455 3.86455 3.9339 7.74698C1.00326 11.6294 -0.369481 16.4675 0.0854591 21.3105C0.5404 26.1536 2.79012 30.6514 6.39253 33.9201C5.86939 33.0022 5.54145 31.9861 5.42925 30.9356C5.29828 29.7615 5.43426 28.573 5.82703 27.4589C6.21979 26.3447 6.8592 25.3337 7.69749 24.5014L7.95271 24.2461C7.0303 21.9506 6.80755 19.4334 7.31253 17.0116C7.8175 14.5897 9.02762 12.3713 10.7906 10.6356C12.5535 8.89995 14.7905 7.72459 17.22 7.25745C19.6494 6.79031 22.1628 7.05228 24.4437 8.01038L24.5631 8.08036C25.5461 8.69106 26.3775 9.5172 26.9943 10.4964C27.6112 11.4755 27.9975 12.5821 28.1239 13.7324C28.2831 15.0783 28.0916 16.4425 27.5682 17.6926L31.0467 14.2141C31.8244 13.4436 32.4176 12.5072 32.7819 11.4749C33.1462 10.4425 33.2722 9.34116 33.1502 8.25326Z"
        fill="url(#paint1_linear_635_230)" />
    <path
        d="M120.519 6C120.519 4.89543 121.414 4 122.519 4H125.175C126.089 4 126.887 4.61959 127.113 5.50514L131.534 22.8169C131.54 22.8393 131.56 22.855 131.583 22.855V22.855C131.611 22.855 131.634 22.8323 131.634 22.8043V6C131.634 4.89543 132.529 4 133.634 4H134.044C135.148 4 136.044 4.89543 136.044 6V33.5C136.044 34.6046 135.148 35.5 134.044 35.5H132.508C131.596 35.5 130.8 34.8831 130.571 34.0002L125.029 12.543C125.023 12.5206 125.003 12.505 124.98 12.505V12.505C124.952 12.505 124.929 12.5277 124.929 12.5557V33.5C124.929 34.6046 124.033 35.5 122.929 35.5H122.519C121.414 35.5 120.519 34.6046 120.519 33.5V6Z"
        fill="#2CB3E8" />
    <path
        d="M111.862 6C111.862 4.89543 112.757 4 113.862 4H114.812C115.916 4 116.812 4.89543 116.812 6V33.5C116.812 34.6046 115.916 35.5 114.812 35.5H113.862C112.757 35.5 111.862 34.6046 111.862 33.5V6Z"
        fill="#2CB3E8" />
    <path
        d="M87.6478 6C87.6478 4.89543 88.5432 4 89.6478 4H92.9728C93.9704 4 94.8155 4.73521 94.9536 5.72325L97.8566 26.5004C97.8601 26.526 97.882 26.545 97.9078 26.545V26.545C97.9336 26.545 97.9554 26.526 97.959 26.5004L100.862 5.72325C101 4.73521 101.845 4 102.843 4H106.168C107.272 4 108.168 4.89543 108.168 6V33.5C108.168 34.6046 107.272 35.5 106.168 35.5H105.488C104.383 35.5 103.488 34.6046 103.488 33.5V11.6984C103.488 11.6717 103.466 11.65 103.439 11.65V11.65C103.415 11.65 103.395 11.6675 103.392 11.6912L100.055 33.7985C99.907 34.7767 99.0663 35.5 98.077 35.5H97.3786C96.3893 35.5 95.5486 34.7767 95.401 33.7985L92.064 11.6912C92.0604 11.6675 92.0401 11.65 92.0162 11.65V11.65C91.9894 11.65 91.9678 11.6717 91.9678 11.6984V33.5C91.9678 34.6046 91.0724 35.5 89.9678 35.5H89.6478C88.5432 35.5 87.6478 34.6046 87.6478 33.5V6Z"
        fill="#2CB3E8" />
    <path
        d="M69.3665 6C69.3665 4.89543 70.262 4 71.3665 4H76.9265C79.3865 4 81.2315 4.66 82.4615 5.98C83.6915 7.3 84.3065 9.235 84.3065 11.785V27.715C84.3065 30.265 83.6915 32.2 82.4615 33.52C81.2315 34.84 79.3865 35.5 76.9265 35.5H71.3665C70.262 35.5 69.3665 34.6046 69.3665 33.5V6ZM76.8365 31C77.6465 31 78.2615 30.76 78.6815 30.28C79.1315 29.8 79.3565 29.02 79.3565 27.94V11.56C79.3565 10.48 79.1315 9.7 78.6815 9.22C78.2615 8.74 77.6465 8.5 76.8365 8.5H76.3165C75.212 8.5 74.3165 9.39543 74.3165 10.5V29C74.3165 30.1046 75.212 31 76.3165 31H76.8365Z"
        fill="#3C5BA9" />
    <path
        d="M54.8566 5.67852C55.0142 4.71079 55.8502 4 56.8306 4H60.1344C61.1148 4 61.9508 4.71079 62.1084 5.67852L66.5869 33.1785C66.7851 34.3954 65.8458 35.5 64.6129 35.5H62.384C62.1722 35.5 61.9926 35.3444 61.9624 35.1348L61.127 29.3281C61.1259 29.3207 61.115 29.3215 61.115 29.329V29.329C61.115 29.3323 61.1123 29.335 61.109 29.335H57.2192C56.2263 29.335 55.3836 30.0635 55.2402 31.0461L54.8398 33.7889C54.6964 34.7715 53.8537 35.5 52.8608 35.5H52.3521C51.1192 35.5 50.1799 34.3954 50.3781 33.1785L54.8566 5.67852ZM58.2993 25.06C59.4771 25.06 60.3824 24.0176 60.2172 22.8514L58.3313 9.53449C58.3277 9.50897 58.3058 9.49 58.2801 9.49V9.49C58.2542 9.49 58.2324 9.50905 58.2288 9.53464L56.3806 22.8568C56.2191 24.0213 57.1237 25.06 58.2993 25.06V25.06Z"
        fill="#3C5BA9" />
</svg>
