<svg width="150" height="40" viewBox="0 0 150 40" fill="none" xmlns="http://www.w3.org/2000/svg">
    <defs>
        <linearGradient id="paint0_linear_379_427" x1="11.39" y1="38.473" x2="38.72" y2="11.1431" gradientUnits="userSpaceOnUse">
            <stop offset="0.5" stop-color="#2BB3E8"/>
            <stop offset="1" stop-color="#3B5AA9"/>
        </linearGradient>
        <linearGradient id="paint1_linear_379_427" x1="0.435844" y1="27.9799" x2="27.8234" y2="0.59232" gradientUnits="userSpaceOnUse">
            <stop stop-color="#3B5AA9"/>
            <stop offset="0.5" stop-color="#2BB4E8"/>
        </linearGradient>
    </defs>
<path d="M49.4167 3.08691H59.5916C59.9396 3.08691 60.2734 3.22518 60.5195 3.47127C60.7656 3.71737 60.9038 4.05113 60.9038 4.39917V6.35776C60.9038 6.70579 60.7656 7.03957 60.5195 7.28566C60.2734 7.53176 59.9396 7.67002 59.5916 7.67002H53.9214C53.5734 7.67002 53.2397 7.80827 52.9936 8.05437C52.7475 8.30046 52.6092 8.63424 52.6092 8.98227V15.3183C52.6092 15.6663 52.7475 16.0001 52.9936 16.2462C53.2397 16.4923 53.5734 16.6306 53.9214 16.6306H57.8925C58.2405 16.6306 58.5743 16.7688 58.8204 17.0149C59.0665 17.261 59.2048 17.5948 59.2048 17.9428V19.9014C59.2048 20.0735 59.1708 20.2439 59.1048 20.4028C59.0388 20.5618 58.942 20.7061 58.8201 20.8276C58.6982 20.9491 58.5535 21.0452 58.3943 21.1107C58.2351 21.1761 58.0646 21.2094 57.8925 21.2088H53.9214C53.5734 21.2088 53.2397 21.347 52.9936 21.5931C52.7475 21.8392 52.6092 22.173 52.6092 22.521V29.3222C52.6105 29.6694 52.7493 30.0019 52.9953 30.247C53.2412 30.492 53.5743 30.6296 53.9214 30.6296H59.5916C59.7639 30.6296 59.9345 30.6635 60.0937 30.7295C60.253 30.7954 60.3976 30.8921 60.5195 31.0139C60.6413 31.1358 60.738 31.2805 60.8039 31.4397C60.8699 31.5989 60.9038 31.7695 60.9038 31.9418V33.9004C60.9038 34.2485 60.7656 34.5822 60.5195 34.8283C60.2734 35.0744 59.9396 35.2127 59.5916 35.2127H49.4167C49.0687 35.2127 48.7349 35.0744 48.4888 34.8283C48.2427 34.5822 48.1044 34.2485 48.1044 33.9004V4.39917C48.1044 4.05113 48.2427 3.71737 48.4888 3.47127C48.7349 3.22518 49.0687 3.08691 49.4167 3.08691Z" fill="#3C5BA9"/>
<path d="M77.2825 7.42038L69.4922 28.8816C69.4207 29.0797 69.3979 29.2922 69.4258 29.501C69.4537 29.7097 69.5315 29.9087 69.6525 30.0811C69.7735 30.2535 69.9342 30.3943 70.1211 30.4915C70.308 30.5886 70.5155 30.6394 70.7262 30.6395H76.0486C76.3967 30.6395 76.7305 30.7777 76.9765 31.0238C77.2226 31.2699 77.3609 31.6037 77.3609 31.9517V33.9103C77.3609 34.2583 77.2226 34.5921 76.9765 34.8382C76.7305 35.0843 76.3967 35.2226 76.0486 35.2226H65.1491C64.801 35.2226 64.4673 35.0843 64.2212 34.8382C63.9751 34.5921 63.8368 34.2583 63.8368 33.9103V31.3152C63.8482 31.1802 63.8812 31.0479 63.9348 30.9235L71.725 9.46222C71.7966 9.2641 71.8194 9.05166 71.7915 8.84288C71.7636 8.6341 71.6858 8.4351 71.5648 8.26269C71.4438 8.09029 71.2831 7.94956 71.0962 7.85238C70.9093 7.7552 70.7018 7.70443 70.4911 7.70437H65.1491C64.801 7.70437 64.4673 7.56612 64.2212 7.32002C63.9751 7.07393 63.8368 6.74015 63.8368 6.39212V4.43353C63.8368 4.0855 63.9751 3.75172 64.2212 3.50562C64.4673 3.25953 64.801 3.12128 65.1491 3.12128H76.0486C76.3967 3.12128 76.7305 3.25953 76.9765 3.50562C77.2226 3.75172 77.3609 4.0855 77.3609 4.43353V7.02867C77.354 7.16236 77.3276 7.29431 77.2825 7.42038Z" fill="#3C5BA9"/>
<path d="M80.9156 4.39922C80.9156 4.05118 81.0539 3.71742 81.3 3.47132C81.5461 3.22523 81.8799 3.08696 82.2279 3.08696H87.9715C88.9293 3.04352 89.8852 3.20789 90.7735 3.5688C91.6619 3.9297 92.4615 4.4786 93.1177 5.17777C94.3973 6.57163 95.0355 8.43391 95.0322 10.7646V14.53C95.0322 16.8607 94.394 18.7214 93.1177 20.112C92.4626 20.8129 91.6632 21.3632 90.7747 21.725C89.8862 22.0868 88.9298 22.2515 87.9715 22.2077H86.7327C86.5606 22.2071 86.39 22.2404 86.2309 22.3058C86.0717 22.3712 85.927 22.4674 85.805 22.5889C85.6831 22.7103 85.5864 22.8547 85.5204 23.0136C85.4544 23.1726 85.4204 23.343 85.4204 23.5151V33.9446C85.4204 34.2926 85.2821 34.6264 85.0361 34.8724C84.79 35.1185 84.4562 35.2568 84.1082 35.2568H82.2279C81.8799 35.2568 81.5461 35.1185 81.3 34.8724C81.0539 34.6264 80.9156 34.2926 80.9156 33.9446V4.39922ZM87.7707 17.6197C88.1472 17.6423 88.5243 17.5841 88.8764 17.449C89.2286 17.3138 89.5478 17.1049 89.8125 16.8363C90.3257 16.221 90.5834 15.4324 90.5323 14.6329V10.6814C90.5826 9.88046 90.3251 9.09055 89.8125 8.47309C89.5468 8.20607 89.2273 7.99858 88.8753 7.86436C88.5233 7.73014 88.1468 7.67225 87.7707 7.69455H86.7425C86.3944 7.69455 86.0606 7.8328 85.8145 8.07889C85.5684 8.32499 85.4302 8.65877 85.4302 9.0068V16.3074C85.4302 16.6555 85.5684 16.9893 85.8145 17.2354C86.0606 17.4814 86.3944 17.6197 86.7425 17.6197H87.7707Z" fill="#2CB3E8"/>
<path d="M108.689 34.2579L105.907 22.9716C105.834 22.6904 105.668 22.4416 105.438 22.2644C105.208 22.0871 104.925 21.9914 104.634 21.9923C104.462 21.9916 104.292 22.0249 104.132 22.0904C103.973 22.1558 103.829 22.252 103.707 22.3734C103.585 22.4949 103.488 22.6392 103.422 22.7982C103.356 22.9571 103.322 23.1275 103.322 23.2996V33.9592C103.322 34.3064 103.184 34.6395 102.939 34.8854C102.694 35.1314 102.362 35.2702 102.015 35.2715H100.129C99.7814 35.2715 99.4476 35.1332 99.2016 34.8871C98.9555 34.641 98.8172 34.3073 98.8172 33.9592V4.39922C98.8172 4.05118 98.9555 3.71742 99.2016 3.47132C99.4476 3.22523 99.7814 3.08696 100.129 3.08696H105.873C106.831 3.04352 107.787 3.20789 108.675 3.5688C109.563 3.9297 110.363 4.4786 111.019 5.17777C112.299 6.57163 112.937 8.43391 112.934 10.7646V14.2999C112.962 15.6497 112.686 16.9886 112.126 18.2171C111.729 19.0709 111.151 19.8279 110.432 20.4352C110.252 20.5936 110.122 20.7996 110.055 21.0293C109.988 21.259 109.988 21.503 110.055 21.7327L113.183 33.6214C113.233 33.8158 113.238 34.019 113.198 34.2155C113.157 34.4121 113.072 34.5968 112.95 34.7555C112.827 34.9142 112.669 35.0428 112.489 35.1314C112.309 35.22 112.111 35.2662 111.91 35.2666H109.952C109.659 35.2628 109.376 35.1615 109.147 34.9789C108.918 34.7962 108.757 34.5425 108.689 34.2579ZM103.302 16.0675C103.302 16.4156 103.441 16.7493 103.687 16.9954C103.933 17.2415 104.267 17.3798 104.615 17.3798H105.643C106.019 17.4021 106.395 17.3442 106.747 17.21C107.099 17.0757 107.419 16.8683 107.685 16.6012C108.197 15.9838 108.455 15.1939 108.404 14.3929V10.6716C108.455 9.87068 108.197 9.08077 107.685 8.4633C107.419 8.19628 107.099 7.98878 106.747 7.85456C106.395 7.72034 106.019 7.66247 105.643 7.68476H104.615C104.267 7.68476 103.933 7.82301 103.687 8.06911C103.441 8.3152 103.302 8.64898 103.302 8.99701V16.0675Z" fill="#2CB3E8"/>
<path d="M118.927 33.5773C117.595 32.1508 116.929 30.2754 116.929 27.9512V10.3974C116.929 8.06664 117.595 6.18966 118.927 4.76642C120.324 3.39762 122.203 2.63101 124.159 2.63101C126.115 2.63101 127.993 3.39762 129.391 4.76642C130.723 6.19293 131.389 8.06991 131.389 10.3974V27.9512C131.389 30.2787 130.723 32.154 129.391 33.5773C127.995 34.9484 126.116 35.7166 124.159 35.7166C122.202 35.7166 120.323 34.9484 118.927 33.5773ZM126.159 30.2917C126.679 29.6268 126.935 28.7934 126.879 27.9512V10.3974C126.933 9.55391 126.677 8.71969 126.159 8.05197C125.629 7.52213 124.911 7.22446 124.161 7.22446C123.412 7.22446 122.693 7.52213 122.164 8.05197C121.641 8.71749 121.383 9.5529 121.439 10.3974V27.9512C121.384 28.794 121.642 29.6275 122.164 30.2917C122.693 30.8216 123.412 31.1192 124.161 31.1192C124.911 31.1192 125.629 30.8216 126.159 30.2917Z" fill="#2CB3E8"/>
<path d="M146.817 13.5458C146.469 13.5458 146.136 13.4075 145.889 13.1614C145.643 12.9153 145.505 12.5816 145.505 12.2335V10.8478C145.561 10.0034 145.303 9.16794 144.78 8.50242C144.251 7.97258 143.532 7.67493 142.783 7.67493C142.033 7.67493 141.315 7.97258 140.785 8.50242C140.267 9.17014 140.011 10.0044 140.065 10.8478V28.4017C140.012 29.245 140.267 30.079 140.785 30.7471C141.316 31.2746 142.034 31.5706 142.783 31.5706C143.531 31.5706 144.249 31.2746 144.78 30.7471C145.303 30.0816 145.561 29.2462 145.505 28.4017V23.9949C145.505 23.6468 145.367 23.3131 145.121 23.067C144.875 22.8209 144.541 22.6826 144.193 22.6826H144.095C143.922 22.6846 143.75 22.6522 143.589 22.5874C143.429 22.5227 143.283 22.4268 143.159 22.3052C143.036 22.1837 142.938 22.0389 142.871 21.8793C142.803 21.7197 142.769 21.5484 142.768 21.3753V19.4167C142.769 19.0695 142.908 18.737 143.154 18.4919C143.4 18.2469 143.733 18.1093 144.08 18.1093H148.688C149.035 18.1093 149.368 18.2469 149.614 18.4919C149.86 18.737 149.999 19.0695 150 19.4167V28.4017C150 30.7292 149.334 32.6061 148.002 34.0326C146.605 35.4014 144.727 36.1681 142.77 36.1681C140.814 36.1681 138.936 35.4014 137.539 34.0326C136.207 32.6094 135.541 30.7324 135.541 28.4017V10.8478C135.541 8.51711 136.207 6.64013 137.539 5.21689C138.936 3.84809 140.814 3.08148 142.77 3.08148C144.727 3.08148 146.605 3.84809 148.002 5.21689C149.334 6.64013 150 8.51711 150 10.8478V12.2482C150 12.5963 149.862 12.93 149.616 13.1761C149.37 13.4222 149.036 13.5605 148.688 13.5605L146.817 13.5458Z" fill="#2CB3E8"/>
<path d="M6.0179 30.8738C6.13276 31.9334 6.4852 32.9534 7.04899 33.8579C7.61277 34.7624 8.37337 35.528 9.27411 36.0978L9.40995 36.1842C13.1436 38.4779 17.5413 39.4466 21.8932 38.9339C26.245 38.4213 30.2972 36.4572 33.3957 33.3587C36.4942 30.2602 38.4583 26.208 38.9709 21.8562C39.4835 17.5043 38.5149 13.1067 36.2212 9.37297C35.2588 7.82856 34.0867 6.42515 32.7386 5.20288C33.5824 6.6974 33.914 8.42697 33.6829 10.1276C33.4517 11.8282 32.6704 13.4065 31.4583 14.6216L31.2031 14.8768C32.1246 17.1697 32.3476 19.6839 31.8441 22.1033C31.3405 24.5226 30.1329 26.739 28.373 28.4738C26.6131 30.2086 24.3796 31.3843 21.9533 31.8531C19.527 32.3219 17.0162 32.0628 14.7368 31.1085L14.6133 31.0385C13.6305 30.4276 12.7993 29.6014 12.1824 28.6223C11.5656 27.6431 11.1792 26.5367 11.0525 25.3864C10.8954 24.0402 11.0882 22.6762 11.6123 21.4263L8.10912 24.913C7.33461 25.6853 6.74432 26.6224 6.38224 27.6544C6.02017 28.6865 5.89562 29.7869 6.0179 30.8738Z" fill="url(#paint0_linear_379_427)"/>
<path d="M33.1502 8.25326C33.0398 7.19489 32.6913 6.17522 32.131 5.27057C31.5706 4.36592 30.813 3.59972 29.9146 3.02933L29.857 2.98816L29.9311 2.69177L29.7788 2.93876C25.6479 0.370063 20.7058 -0.560909 15.9235 0.328796C11.1412 1.2185 6.86455 3.86455 3.9339 7.74698C1.00326 11.6294 -0.369481 16.4675 0.0854594 21.3105C0.5404 26.1536 2.79012 30.6514 6.39253 33.9201C5.86939 33.0022 5.54145 31.9861 5.42925 30.9356C5.29828 29.7615 5.43426 28.573 5.82703 27.4589C6.21979 26.3447 6.8592 25.3337 7.69749 24.5014L7.95271 24.2461C7.0303 21.9506 6.80755 19.4334 7.31253 17.0116C7.8175 14.5897 9.02762 12.3713 10.7906 10.6356C12.5535 8.89995 14.7905 7.72459 17.22 7.25745C19.6494 6.79031 22.1628 7.05228 24.4437 8.01038L24.5631 8.08036C25.5461 8.69106 26.3775 9.5172 26.9943 10.4964C27.6112 11.4755 27.9975 12.5821 28.1239 13.7324C28.2831 15.0783 28.0916 16.4425 27.5682 17.6926L31.0467 14.2141C31.8244 13.4436 32.4176 12.5072 32.7819 11.4749C33.1462 10.4425 33.2722 9.34116 33.1502 8.25326Z" fill="url(#paint1_linear_379_427)"/>

</svg>
