<svg width="35" height="34" viewBox="0 0 35 34" fill="none" xmlns="http://www.w3.org/2000/svg">
<path d="M5.2976 26.8722C5.39757 27.7945 5.70434 28.6823 6.19505 29.4695C6.68576 30.2568 7.34777 30.9232 8.13177 31.4191L8.25001 31.4943C11.4998 33.4907 15.3274 34.3338 19.1153 33.8876C22.9031 33.4414 26.43 31.7319 29.1269 29.035C31.8238 26.3381 33.5333 22.8111 33.9795 19.0233C34.4257 15.2355 33.5826 11.4079 31.5862 8.1581C30.7485 6.81387 29.7284 5.59235 28.555 4.5285C29.2894 5.82931 29.5781 7.33471 29.3769 8.81493C29.1757 10.2951 28.4957 11.6689 27.4407 12.7265L27.2185 12.9486C28.0206 14.9443 28.2147 17.1327 27.7764 19.2384C27.3381 21.3442 26.287 23.2733 24.7552 24.7833C23.2235 26.2932 21.2794 27.3165 19.1676 27.7246C17.0558 28.1326 14.8704 27.9071 12.8864 27.0764L12.7789 27.0155C11.9235 26.4838 11.2 25.7647 10.6632 24.9125C10.1263 24.0603 9.78996 23.0972 9.67964 22.096C9.5429 20.9243 9.71073 19.7371 10.1669 18.6492L7.11778 21.684C6.44365 22.3562 5.92987 23.1718 5.61472 24.0701C5.29958 24.9684 5.19117 25.9262 5.2976 26.8722Z" fill="white"/>
<path d="M28.9133 7.18355C28.8171 6.26235 28.5138 5.37484 28.0261 4.58744C27.5384 3.80005 26.879 3.13316 26.0971 2.63669L26.0469 2.60086L26.1114 2.34288L25.9788 2.55787C22.3834 0.322099 18.0818 -0.488209 13.9193 0.28618C9.75688 1.06057 6.03452 3.36367 3.48372 6.74289C0.932915 10.1221 -0.2619 14.3331 0.134075 18.5484C0.530051 22.7638 2.48818 26.6786 5.62368 29.5237C5.16835 28.7247 4.88291 27.8404 4.78525 26.926C4.67126 25.9041 4.78961 24.8697 5.13147 23.8999C5.47333 22.9302 6.02986 22.0502 6.7595 21.3257L6.98165 21.1036C6.17879 19.1055 5.98491 16.9146 6.42443 14.8067C6.86396 12.6987 7.91723 10.7678 9.45168 9.25712C10.9861 7.74642 12.9332 6.7234 15.0478 6.3168C17.1623 5.91021 19.3499 6.13823 21.3352 6.97215L21.4391 7.03306C22.2947 7.5646 23.0183 8.28367 23.5553 9.13591C24.0922 9.98816 24.4284 10.9513 24.5384 11.9525C24.677 13.124 24.5103 14.3113 24.0547 15.3994L27.0824 12.3718C27.7593 11.7012 28.2756 10.8861 28.5927 9.98759C28.9098 9.08908 29.0194 8.13044 28.9133 7.18355Z" fill="white"/>
</svg>
