<svg width="14" height="17" viewBox="0 0 14 17" fill="none" xmlns="http://www.w3.org/2000/svg">
<path d="M11.0305 8.485C12.4363 8.485 13.576 9.62465 13.576 11.0305C13.576 12.9245 12.7971 14.4419 11.519 15.4678C10.261 16.4775 8.57508 16.97 6.788 16.97C5.00092 16.97 3.31495 16.4775 2.05702 15.4678C0.778872 14.4419 0 12.9245 0 11.0305C0 9.70741 1.00951 8.62001 2.30032 8.49665L2.54547 8.485H11.0305ZM6.788 0C8.66246 0 10.182 1.51954 10.182 3.394C10.182 5.26846 8.66246 6.788 6.788 6.788C4.91354 6.788 3.394 5.26846 3.394 3.394C3.394 1.51954 4.91354 0 6.788 0Z" fill="white"/>
</svg>
