<svg width="17" height="17" viewBox="0 0 17 17" fill="none" xmlns="http://www.w3.org/2000/svg">
<path d="M4.94953 12.7275C4.17174 12.7275 3.54244 13.3639 3.54244 14.1417C3.54244 14.9195 4.17174 15.5559 4.94953 15.5559C5.72732 15.5559 6.3637 14.9195 6.3637 14.1417C6.3637 13.3639 5.72732 12.7275 4.94953 12.7275ZM1.41411 2.82835H2.1212L4.6667 8.19511L3.71214 9.9204C3.19596 10.8679 3.87476 12.0204 4.94953 12.0204H12.7274C13.1163 12.0204 13.4345 11.7022 13.4345 11.3134C13.4345 10.9245 13.1163 10.6063 12.7274 10.6063H4.94953L5.72732 9.1921H10.9951C11.5254 9.1921 11.9921 8.9022 12.2325 8.46381L14.7638 3.87483C15.0255 3.40816 14.6861 2.82835 14.1487 2.82835H3.68385L3.21011 1.81722C3.09697 1.56974 2.84242 1.41418 2.57373 1.41418H1.41411C1.02522 1.41418 0.707031 1.73237 0.707031 2.12127C0.707031 2.51016 1.02522 2.82835 1.41411 2.82835ZM12.0204 12.7275C11.2426 12.7275 10.6133 13.3639 10.6133 14.1417C10.6133 14.9195 11.2426 15.5559 12.0204 15.5559C12.7982 15.5559 13.4345 14.9195 13.4345 14.1417C13.4345 13.3639 12.7982 12.7275 12.0204 12.7275Z" fill="white"/>
</svg>
