<svg width="17" height="12" viewBox="0 0 17 12" fill="none" xmlns="http://www.w3.org/2000/svg">
<path d="M16.1215 0H15.273H13.576H3.394H1.697H0.8485C0.37928 0 0 0.37928 0 0.8485V1.697V3.34139V4.2425H0.75771C1.60282 4.2425 2.38683 4.82033 2.52259 5.6544C2.69568 6.71757 1.87943 7.6365 0.8485 7.6365H0V8.53761V10.182V11.0305C0 11.4997 0.37928 11.879 0.8485 11.879H1.697H3.394H13.576H15.273H16.1215C16.5907 11.879 16.97 11.4997 16.97 11.0305V10.182V8.53761V7.6365C16.97 7.6365 16.5907 7.6365 16.1215 7.6365C15.0906 7.6365 14.2743 6.71757 14.4474 5.6544C14.5832 4.82033 15.3672 4.2425 16.2123 4.2425H16.97V3.34139V1.697V0.8485C16.97 0.37928 16.5907 0 16.1215 0ZM7.6365 10.182H5.9395V8.485H7.6365V10.182ZM7.6365 6.788H5.9395V5.091H7.6365V6.788ZM7.6365 3.394H5.9395V1.697H7.6365V3.394Z" fill="white"/>
</svg>
